<?xml version="1.0" standalone="no"?>
<svg viewBox="0 0 200 200" xmlns="http://www.w3.org/2000/svg">
  <path fill="#035e2a" d="M18.7,-43.5C22.3,-30.2,22.2,-21.5,29.3,-15C36.4,-8.5,50.8,-4.2,51.2,0.2C51.7,4.7,38.1,9.5,33.1,19.6C28.1,29.6,31.5,45,27.4,52.2C23.3,59.3,11.6,58.2,2.4,54C-6.8,49.9,-13.7,42.7,-25,39.7C-36.2,36.7,-52,37.9,-62.5,32C-73,26,-78.4,13,-81.5,-1.8C-84.7,-16.6,-85.6,-33.3,-77.2,-43C-68.9,-52.7,-51.3,-55.5,-36.9,-62.6C-22.4,-69.7,-11.2,-81.2,-1.9,-78C7.5,-74.7,15,-56.8,18.7,-43.5Z" transform="translate(100 100)" />
</svg>
